<?xml version="1.0" encoding="utf-8"?>
<!-- Generator: Adobe Illustrator 16.0.4, SVG Export Plug-In . SVG Version: 6.00 Build 0)  -->
<!DOCTYPE svg PUBLIC "-//W3C//DTD SVG 1.1//EN" "http://www.w3.org/Graphics/SVG/1.1/DTD/svg11.dtd">
<svg version="1.1" id="Capa_1" xmlns="http://www.w3.org/2000/svg" xmlns:xlink="http://www.w3.org/1999/xlink" x="0px" y="0px"
	 width="59.09px" height="50px" viewBox="207.998 212.542 59.09 50" enable-background="new 207.998 212.542 59.09 50"
	 xml:space="preserve">
<g>
	<g>
		<path fill="#FFFFFF" d="M262.257,226.25c0.639-1.918,0.959-3.907,0.959-5.966c0-2.747-0.604-5.327-1.812-7.742
			c-2.532,0-4.77,0.462-6.711,1.385c-1.941,0.923-4.154,2.355-6.64,4.296c-3.125-0.757-6.439-1.136-9.942-1.136
			c-3.836,0-7.494,0.415-10.974,1.243c-2.533-1.989-4.77-3.45-6.711-4.386c-1.941-0.935-4.19-1.403-6.747-1.403
			c-1.207,2.415-1.811,4.996-1.811,7.742c0,2.083,0.32,4.096,0.959,6.037c-3.22,3.765-4.83,8.452-4.83,14.063
			c0,4.924,0.733,8.842,2.202,11.754c0.781,1.538,1.799,2.899,3.054,4.084c1.254,1.184,2.687,2.143,4.297,2.877
			c1.61,0.733,3.231,1.344,4.865,1.828c1.634,0.485,3.439,0.841,5.416,1.064c1.977,0.226,3.723,0.374,5.238,0.445
			c1.515,0.07,3.196,0.105,5.042,0.105c2.178,0,4.154-0.053,5.931-0.159c1.775-0.106,3.805-0.367,6.09-0.78
			c2.284-0.415,4.297-0.978,6.037-1.688s3.41-1.729,5.008-3.054c1.598-1.326,2.846-2.9,3.746-4.724
			c1.443-2.936,2.166-6.854,2.166-11.754C267.087,234.749,265.477,230.038,262.257,226.25z M257.997,252.084
			c-0.758,1.551-1.717,2.77-2.877,3.658c-1.16,0.888-2.604,1.598-4.332,2.131c-1.729,0.532-3.386,0.882-4.972,1.047
			c-1.587,0.166-3.35,0.248-5.292,0.248h-5.965c-1.941,0-3.706-0.082-5.292-0.248c-1.586-0.165-3.243-0.515-4.971-1.047
			c-1.728-0.533-3.172-1.243-4.332-2.131c-1.161-0.89-2.119-2.107-2.876-3.658c-0.758-1.551-1.137-3.368-1.137-5.451
			c0-2.842,0.817-5.257,2.451-7.244c1.634-1.989,3.847-2.983,6.64-2.983c1.019,0,3.327,0.249,6.925,0.746
			c1.681,0.26,3.54,0.391,5.575,0.391c2.036,0,3.895-0.13,5.575-0.391c3.646-0.497,5.954-0.746,6.925-0.746
			c2.794,0,5.007,0.995,6.641,2.983s2.45,4.402,2.45,7.244C259.133,248.717,258.754,250.534,257.997,252.084z"/>
		<path fill="#FFFFFF" d="M228.753,241.022c-0.722-0.806-1.58-1.208-2.575-1.208s-1.853,0.403-2.575,1.208
			c-0.722,0.805-1.231,1.704-1.526,2.697c-0.296,0.995-0.444,1.966-0.444,2.913s0.148,1.917,0.444,2.912
			c0.295,0.994,0.804,1.894,1.526,2.698c0.723,0.805,1.58,1.208,2.575,1.208s1.853-0.403,2.575-1.208
			c0.722-0.805,1.231-1.704,1.527-2.698c0.296-0.995,0.444-1.965,0.444-2.912c0-0.946-0.148-1.918-0.444-2.913
			C229.984,242.727,229.475,241.827,228.753,241.022z"/>
		<path fill="#FFFFFF" d="M251.48,241.022c-0.723-0.806-1.58-1.208-2.574-1.208s-1.853,0.403-2.575,1.208
			c-0.722,0.805-1.23,1.704-1.526,2.697c-0.297,0.995-0.444,1.966-0.444,2.913s0.147,1.917,0.444,2.912
			c0.296,0.994,0.805,1.894,1.526,2.698c0.723,0.805,1.581,1.208,2.575,1.208s1.853-0.403,2.574-1.208
			c0.721-0.805,1.23-1.704,1.526-2.698c0.296-0.995,0.444-1.965,0.444-2.912c0-0.946-0.148-1.918-0.444-2.913
			C252.711,242.727,252.201,241.827,251.48,241.022z"/>
	</g>
</g>
</svg>
