<?xml version="1.0" encoding="utf-8"?>
<!-- Generator: Adobe Illustrator 16.0.4, SVG Export Plug-In . SVG Version: 6.00 Build 0)  -->
<!DOCTYPE svg PUBLIC "-//W3C//DTD SVG 1.1//EN" "http://www.w3.org/Graphics/SVG/1.1/DTD/svg11.dtd">
<svg version="1.1" id="Capa_1" xmlns="http://www.w3.org/2000/svg" xmlns:xlink="http://www.w3.org/1999/xlink" x="0px" y="0px"
	 width="61.554px" height="50px" viewBox="369.223 225 61.554 50" enable-background="new 369.223 225 61.554 50"
	 xml:space="preserve">
<g>
	<g>
		<path fill="#FFFFFF" d="M430.777,230.917c-2.266,1.003-4.696,1.685-7.25,1.988c2.607-1.562,4.604-4.039,5.55-6.981
			c-2.446,1.446-5.146,2.496-8.023,3.065c-2.304-2.458-5.581-3.989-9.216-3.989c-6.974,0-12.628,5.654-12.628,12.624
			c0,0.988,0.111,1.954,0.327,2.877c-10.493-0.527-19.797-5.555-26.025-13.194c-1.088,1.862-1.708,4.031-1.708,6.347
			c0,4.381,2.231,8.247,5.616,10.509c-2.069-0.069-4.016-0.639-5.72-1.585v0.158c0,6.116,4.354,11.22,10.128,12.382
			c-1.058,0.284-2.173,0.442-3.327,0.442c-0.815,0-1.604-0.081-2.377-0.234c1.608,5.02,6.27,8.67,11.793,8.77
			c-4.32,3.385-9.766,5.396-15.682,5.396c-1.019,0-2.023-0.062-3.012-0.173c5.589,3.589,12.224,5.681,19.355,5.681
			c23.228,0,35.925-19.239,35.925-35.925l-0.042-1.635C426.942,235.67,429.089,233.447,430.777,230.917z"/>
	</g>
</g>
</svg>
