<?xml version="1.0" encoding="utf-8"?>
<!-- Generator: Adobe Illustrator 16.0.4, SVG Export Plug-In . SVG Version: 6.00 Build 0)  -->
<!DOCTYPE svg PUBLIC "-//W3C//DTD SVG 1.1//EN" "http://www.w3.org/Graphics/SVG/1.1/DTD/svg11.dtd">
<svg version="1.1" id="Capa_1" xmlns="http://www.w3.org/2000/svg" xmlns:xlink="http://www.w3.org/1999/xlink" x="0px" y="0px"
	 width="44.559px" height="49.928px" viewBox="7.265 0.036 44.559 49.928" enable-background="new 7.265 0.036 44.559 49.928"
	 xml:space="preserve">
<g>
	<!-- 0060B4, 004D8F -->
	<path fill="#fff" d="M50.605,25.027c-0.811,2.077-1.979,3.686-3.504,4.821c-1.527,1.138-3.053,1.965-4.58,2.484
		c-1.525,0.519-3.328,0.877-5.406,1.07c1.43,1.301,2.145,3.314,2.145,6.04v10.521H23.186c0-3.312-0.033-5.876-0.098-7.694
		c-1.753,0.518-3.279,0.632-4.579,0.34c-1.298-0.292-2.337-0.585-3.116-0.877c-0.78-0.293-1.43-0.746-1.949-1.363
		c-0.52-0.617-0.845-1.056-0.974-1.315c-0.13-0.259-0.228-0.454-0.292-0.584c-0.974-2.469-2.175-4.059-3.604-4.774
		c-1.104-0.648-1.51-1.119-1.217-1.411c0.292-0.293,0.552-0.454,0.779-0.487c0.228-0.032,0.472-0.048,0.731-0.048
		c2.143,0.195,3.799,1.298,4.968,3.312c0.845,1.494,1.948,2.5,3.312,3.02s2.501,0.697,3.41,0.536
		c0.909-0.163,1.786-0.438,2.63-0.828c0.26-1.948,0.975-3.377,2.143-4.287c-2.078-0.259-3.896-0.649-5.455-1.168
		c-1.559-0.52-3.101-1.347-4.626-2.484c-1.526-1.136-2.696-2.744-3.507-4.821s-1.218-4.611-1.218-7.598
		c0-3.376,1.104-6.267,3.312-8.67c-0.974-2.662-0.844-5.521,0.389-8.572l0.78-0.097c0.585-0.066,1.624,0.178,3.118,0.729
		c1.493,0.553,3.149,1.445,4.967,2.679c2.729-0.714,5.423-1.071,8.085-1.071c2.729,0,5.455,0.357,8.184,1.071
		c4.09-2.792,7.045-3.896,8.863-3.312c1.363,3.442,1.461,6.299,0.291,8.572c2.209,2.339,3.312,5.229,3.312,8.67
		C51.824,20.416,51.418,22.95,50.605,25.027z M10.814,32.82c-0.259-0.195-0.455-0.163-0.584,0.098
		c-0.13,0.129-0.033,0.292,0.292,0.485c0.195,0.131,0.39,0.098,0.585-0.096C11.107,33.112,11.01,32.949,10.814,32.82z
		 M12.276,34.086c-0.195-0.259-0.422-0.323-0.682-0.195c-0.129,0.261-0.097,0.487,0.097,0.683c0.261,0.26,0.487,0.325,0.683,0.194
		C12.568,34.573,12.536,34.346,12.276,34.086z M13.64,35.84c-0.195-0.326-0.422-0.423-0.682-0.292c-0.26,0.131-0.26,0.39,0,0.779
		c0.194,0.324,0.422,0.422,0.682,0.293C13.834,36.425,13.834,36.164,13.64,35.84z M15.198,37.593
		c-0.259-0.455-0.519-0.485-0.78-0.098c-0.195,0.195-0.129,0.456,0.195,0.78c0.259,0.324,0.519,0.357,0.78,0.098
		C15.653,38.112,15.588,37.854,15.198,37.593z M16.465,39.054c-0.13,0.325,0.064,0.553,0.584,0.682
		c0.39,0.131,0.649,0.034,0.78-0.292c0.129-0.323-0.033-0.552-0.487-0.683C16.887,38.633,16.594,38.73,16.465,39.054z M19.776,39.15
		c-0.455,0-0.682,0.163-0.682,0.487c0,0.326,0.227,0.488,0.682,0.488s0.682-0.162,0.682-0.488
		C20.458,39.313,20.231,39.15,19.776,39.15z M22.991,39.248c-0.13-0.39-0.39-0.518-0.779-0.39c-0.454,0.131-0.682,0.326-0.682,0.585
		c0.13,0.39,0.39,0.521,0.779,0.39C22.764,39.704,22.991,39.509,22.991,39.248z"/>
</g>
</svg>
