<?xml version="1.0" encoding="utf-8"?>
<!-- Generator: Adobe Illustrator 16.0.4, SVG Export Plug-In . SVG Version: 6.00 Build 0)  -->
<!DOCTYPE svg PUBLIC "-//W3C//DTD SVG 1.1//EN" "http://www.w3.org/Graphics/SVG/1.1/DTD/svg11.dtd">
<svg version="1.1" id="Capa_1" xmlns="http://www.w3.org/2000/svg" xmlns:xlink="http://www.w3.org/1999/xlink" x="0px" y="0px"
	 width="52.326px" height="50px" viewBox="188.896 190.059 52.326 50" enable-background="new 188.896 190.059 52.326 50"
	 xml:space="preserve">
<g>
	<path id="LinkedIn" fill="#fff" d="M241.222,220.714v19.345h-11.215V222.01c0-4.534-1.623-7.629-5.682-7.629
		c-3.1,0-4.943,2.085-5.755,4.103c-0.296,0.722-0.372,1.725-0.372,2.734v18.841h-11.219c0,0,0.151-30.569,0-33.737h11.218v4.782
		c-0.022,0.036-0.053,0.074-0.074,0.109h0.074v-0.109c1.49-2.295,4.152-5.575,10.109-5.575
		C235.688,205.529,241.222,210.351,241.222,220.714z M195.244,190.059c-3.838,0-6.348,2.518-6.348,5.828
		c0,3.238,2.438,5.832,6.199,5.832h0.075c3.912,0,6.345-2.593,6.345-5.832C201.442,192.576,199.083,190.059,195.244,190.059z
		 M189.562,240.059h11.215v-33.737h-11.215V240.059z"/>
</g>
</svg>
