<?xml version="1.0" encoding="utf-8"?>
<!-- Generator: Adobe Illustrator 16.0.4, SVG Export Plug-In . SVG Version: 6.00 Build 0)  -->
<!DOCTYPE svg PUBLIC "-//W3C//DTD SVG 1.1//EN" "http://www.w3.org/Graphics/SVG/1.1/DTD/svg11.dtd">
<svg version="1.1" id="Layer_1" xmlns="http://www.w3.org/2000/svg" xmlns:xlink="http://www.w3.org/1999/xlink" x="0px" y="0px"
	 width="57.615px" height="49.695px" viewBox="1.428 0.305 57.615 49.695" enable-background="new 1.428 0.305 57.615 49.695"
	 xml:space="preserve">
<g>
	<path fill="#fff" d="M55.892,0.489c0.75-0.225,1.463-0.244,2.139-0.056c0.674,0.188,1.012,0.731,1.012,1.631l-9.113,45.897
		l-0.562,0.787c-0.299,0.525-0.805,0.9-1.518,1.125c-0.713,0.227-1.631,0.15-2.756-0.225l-12.826-9.787l-8.099,7.988l-1.575,0.449
		h-0.225c-0.45-0.15-0.938-1.088-1.462-2.812c-1.575-5.625-3.112-10.875-4.612-15.749L3.583,25.462L3.02,25.238
		c-0.3-0.15-0.619-0.412-0.956-0.787c-0.338-0.375-0.544-0.788-0.619-1.238c-0.075-0.449,0.094-0.881,0.506-1.293
		c0.413-0.413,0.769-0.675,1.069-0.788c0.3-0.112,0.525-0.206,0.675-0.281L54.88,0.826L55.892,0.489z M49.142,10.164
		c0-0.75-0.562-0.75-1.688,0L17.307,30.188c0.45,1.273,1.2,3.767,2.25,7.479c1.049,3.713,1.687,5.943,1.912,6.693
		c0.225,0.375,0.506,0.562,0.844,0.562c0.337,0,0.543-0.262,0.619-0.787l1.237-10.573c0.975-0.9,5.138-4.727,12.487-11.475
		c7.35-6.75,11.287-10.351,11.812-10.8C48.917,10.838,49.142,10.464,49.142,10.164z"/>
</g>
</svg>
