<?xml version="1.0" encoding="utf-8"?>
<!-- Generator: Adobe Illustrator 16.0.4, SVG Export Plug-In . SVG Version: 6.00 Build 0)  -->
<!DOCTYPE svg PUBLIC "-//W3C//DTD SVG 1.1//EN" "http://www.w3.org/Graphics/SVG/1.1/DTD/svg11.dtd">
<svg version="1.1" id="Layer_1" xmlns="http://www.w3.org/2000/svg" xmlns:xlink="http://www.w3.org/1999/xlink" x="0px" y="0px"
	 width="59.042px" height="50px" viewBox="0 0 59.042 50" enable-background="new 0 0 59.042 50" xml:space="preserve">
<g>
	<path fill-rule="evenodd" clip-rule="evenodd" fill="#004D8F" d="M21.851,12.735c5.836,9.462,11.671,18.925,17.506,28.388
		c-0.014,0.02-0.026,0.039-0.039,0.059c-0.08-0.031-0.164-0.057-0.24-0.095c-5.682-2.829-11.363-5.661-17.048-8.485
		c-0.225-0.111-0.296-0.249-0.296-0.491c0.005-6.351,0.004-12.701,0.005-19.052c0-0.101,0.014-0.202,0.021-0.302
		C21.79,12.75,21.82,12.742,21.851,12.735z"/>
	<path fill-rule="evenodd" clip-rule="evenodd" fill="#004D8F" d="M0,1.354c0.326-1.096,1.058-1.392,2.102-0.917
		C3.298,0.983,4.47,1.583,5.646,2.172C10.165,4.431,14.68,6.7,19.204,8.949c0.387,0.192,0.513,0.425,0.512,0.844
		c-0.009,12.588-0.006,25.178-0.012,37.766c0,0.382-0.016,0.774-0.102,1.144c-0.235,1.001-1.028,1.477-2.028,1.236
		c-0.277-0.065-0.55-0.176-0.806-0.304c-5.034-2.518-10.064-5.042-15.098-7.562c-0.796-0.398-1.27-1.061-1.565-1.874
		C0.066,40.091,0.035,39.979,0,39.87C0,27.031,0,14.193,0,1.354z"/>
	<path fill-rule="evenodd" clip-rule="evenodd" fill="#004D8F" d="M59.042,48.461c-0.287,1.108-1.037,1.493-1.978,1.384
		c-0.392-0.046-0.794-0.17-1.148-0.345c-1.925-0.94-3.835-1.909-5.752-2.865c-2.862-1.428-5.726-2.853-8.587-4.279
		c-0.11-0.055-0.216-0.118-0.347-0.189c0.062-0.112,0.108-0.204,0.162-0.292c5.822-9.457,11.646-18.914,17.47-28.369
		c0.049-0.079,0.119-0.144,0.18-0.215C59.042,25.013,59.042,36.737,59.042,48.461z"/>
	<path fill-rule="evenodd" clip-rule="evenodd" fill="#004D8F" d="M40.592,39.223c-0.1-0.148-0.165-0.241-0.225-0.337
		c-4.153-6.751-8.304-13.503-12.463-20.249c-0.155-0.25-0.148-0.421,0.003-0.667c3.443-5.585,6.879-11.175,10.312-16.767
		c0.304-0.494,0.636-0.947,1.227-1.111c0.587-0.163,1.149-0.107,1.704,0.171c4.311,2.16,8.625,4.31,12.939,6.463
		c1.478,0.737,2.956,1.474,4.435,2.211c0.529,0.264,0.534,0.268,0.218,0.783c-2.517,4.114-5.03,8.23-7.556,12.338
		c-3.422,5.565-6.854,11.124-10.282,16.685C40.814,38.887,40.719,39.027,40.592,39.223z"/>
</g>
</svg>
