<?xml version="1.0" encoding="utf-8"?>
<!-- Generator: Adobe Illustrator 16.0.4, SVG Export Plug-In . SVG Version: 6.00 Build 0)  -->
<!DOCTYPE svg PUBLIC "-//W3C//DTD SVG 1.1//EN" "http://www.w3.org/Graphics/SVG/1.1/DTD/svg11.dtd">
<svg version="1.1" id="Capa_1" xmlns="http://www.w3.org/2000/svg" xmlns:xlink="http://www.w3.org/1999/xlink" x="0px" y="0px"
	 width="39.75px" height="17.391px" viewBox="2.405 16.269 39.75 17.391" enable-background="new 2.405 16.269 39.75 17.391"
	 xml:space="preserve">
<g>
	<path fill="#FFFFFF" d="M3.181,31.253H2.405v-4.814h0.776V31.253z M5.199,32.806H4.423v-7.531h0.776V32.806z M6.752,33.271H5.976
		v-8.772h0.776V33.271z M8.383,33.659H7.606v-8.773h0.777V33.659z M10.323,33.659H9.547V22.092h0.776V33.659z M11.953,33.659h-0.775
		V20.539h0.775V33.659z M13.895,33.659h-0.776V19.685h0.776V33.659z M15.526,33.659h-0.777V19.297h0.777V33.659z M17.543,33.659
		H16.69V19.685h0.854V33.659z M19.096,33.659h-0.775V20.151h0.775V33.659z M20.727,33.659h-0.854V18.52h0.854V33.659z
		 M22.668,33.659h-0.777V17.356h0.777V33.659z M37.264,33.504H23.677c-0.414,0-0.621-0.181-0.621-0.544V17.433
		c0-0.259,0.181-0.466,0.544-0.621c0.879-0.362,1.914-0.543,3.105-0.543c2.225,0,4.166,0.75,5.822,2.251s2.588,3.364,2.795,5.59
		c0.673-0.259,1.32-0.388,1.941-0.388c1.346,0,2.497,0.479,3.454,1.437c0.958,0.957,1.437,2.108,1.437,3.454
		s-0.479,2.498-1.437,3.455C39.761,33.026,38.61,33.504,37.264,33.504z"/>
</g>
</svg>
