<?xml version="1.0" encoding="utf-8"?>
<!-- Generator: Adobe Illustrator 16.0.4, SVG Export Plug-In . SVG Version: 6.00 Build 0)  -->
<!DOCTYPE svg PUBLIC "-//W3C//DTD SVG 1.1//EN" "http://www.w3.org/Graphics/SVG/1.1/DTD/svg11.dtd">
<svg version="1.1" id="Capa_1" xmlns="http://www.w3.org/2000/svg" xmlns:xlink="http://www.w3.org/1999/xlink" x="0px" y="0px"
	 width="60.467px" height="49.129px" viewBox="0.544 0.435 60.467 49.129" enable-background="new 0.544 0.435 60.467 49.129"
	 xml:space="preserve">
<g>
	<path fill="#fff" d="M54.869,12.717v1.536c0,5.669-1.318,11.14-3.956,16.417c-2.637,5.273-6.711,9.742-12.223,13.402
		s-11.89,5.492-19.133,5.492c-7.006,0-13.345-1.852-19.014-5.551c0.63,0.078,1.615,0.119,2.952,0.119
		c5.906,0,11.062-1.773,15.472-5.314c-2.677,0-5.079-0.809-7.203-2.424c-2.127-1.613-3.622-3.68-4.489-6.199
		c0.552,0.158,1.34,0.236,2.362,0.236c1.182,0,2.284-0.117,3.307-0.354c-2.834-0.631-5.196-2.088-7.086-4.369
		c-1.89-2.284-2.834-4.882-2.834-7.795v-0.236c1.812,1.023,3.661,1.535,5.551,1.535c-3.7-2.362-5.551-5.786-5.551-10.274
		c0-2.047,0.591-4.133,1.771-6.26c6.535,8.188,15.038,12.52,25.509,12.992c-0.236-0.944-0.354-1.889-0.354-2.834
		c0-3.387,1.201-6.299,3.603-8.74c2.401-2.44,5.335-3.661,8.799-3.661c3.622,0,6.652,1.299,9.095,3.897
		c3.068-0.63,5.706-1.614,7.911-2.953c-0.945,2.913-2.756,5.196-5.432,6.85c2.757-0.394,5.116-1.063,7.085-2.008
		C59.357,8.742,57.312,10.907,54.869,12.717z"/>
</g>
</svg>
